<?xml version="1.0" encoding="utf-8"?>
<!-- Generator: Adobe Illustrator 23.0.0, SVG Export Plug-In . SVG Version: 6.00 Build 0)  -->
<svg version="1.1" id="Layer_1" xmlns="http://www.w3.org/2000/svg" xmlns:xlink="http://www.w3.org/1999/xlink" x="0px" y="0px"
	 viewBox="0 0 1306.7 1306.7" style="enable-background:new 0 0 1306.7 1306.7;" xml:space="preserve">
<style type="text/css">
	.st0{fill:#2D2D2D;}
</style>
<title>Asset 3</title>
<g>
	<g id="Logo">
		<g id="Hush">
			<g id="Icon">
				<path class="st0" d="M264.3,1020.2c0.1,30.2-24.3,54.7-54.5,54.8h-2c-30.2-0.1-54.6-24.6-54.5-54.8V240.5
					c-0.1-30.2,24.3-54.8,54.5-54.8c0,0,0,0,0,0h2c30.2,0.1,54.6,24.7,54.5,54.8V1020.2z"/>
				<path class="st0" d="M1153.4,1020.2c0.1,30.2-24.3,54.7-54.5,54.8h-2c-30.2-0.1-54.6-24.6-54.5-54.8V240.5
					c-0.1-30.2,24.3-54.7,54.5-54.8h2c30.2,0.1,54.6,24.6,54.5,54.8c0,0,0,0,0,0L1153.4,1020.2z"/>
				<path class="st0" d="M477.3,1133.8c0,30.2-24.9,54.8-55.7,54.8l0,0c-30.8,0-55.7-24.5-55.7-54.8V796.3
					c0-30.2,24.9-54.8,55.7-54.8l0,0c30.8,0,55.7,24.5,55.7,54.8V1133.8z"/>
				<path class="st0" d="M477.3,578.1c0,30.3-24.9,54.9-55.5,54.9l0,0c-30.7,0-55.5-24.6-55.5-54.9V119.4
					c0-30.3,24.9-54.9,55.5-54.9l0,0c30.7,0,55.5,24.6,55.5,54.9V578.1z"/>
				<path class="st0" d="M925.3,1133.6c0,30.4-24.1,55-53.8,55h-3.9c-29.7,0-53.8-24.6-53.8-55V632.5c0-30.4,24.1-55,53.8-55h3.9
					c29.7,0,53.8,24.6,53.8,55L925.3,1133.6z"/>
				<path class="st0" d="M925.3,411.9c0,31.3-25,56.6-55.9,56.6l0,0c-30.9,0-55.9-25.4-55.9-56.6V121.3c0-31.3,25-56.6,55.9-56.6
					l0,0c30.9,0,55.9,25.3,55.9,56.6V411.9z"/>
				<path class="st0" d="M642.8,0c-30.3-0.1-54.9,24.4-55,54.8v186.7c0,0,14.9-32.7,52.9-32.7c43.5,0,57.2,32.7,57.2,32.7V54.8
					C697.8,24.4,673.1-0.1,642.8,0C642.8,0,642.8,0,642.8,0z"/>
				<path class="st0" d="M642.5,1094.2c-39.3,0-55.7-32.5-55.7-32.5v190.2c0,30.2,24.9,54.8,55.7,54.8s55.7-24.5,55.7-54.8v-190.7
					C698.2,1061.2,684,1094.2,642.5,1094.2z"/>
				<path class="st0" d="M642.8,322.5c-30.3-0.1-54.9,24.4-55,54.8v144.6c0,0,33.7,40,57.2,66.3s25.8,27.5,33.7,27.5
					c8.8,0,19.2-3.2,19.2-20.2V377.2C697.8,346.9,673.1,322.4,642.8,322.5C642.8,322.5,642.8,322.5,642.8,322.5z"/>
				<path class="st0" d="M640.3,751.2c23.5,26.3,57.2,66.3,57.2,66.3v99.8c0,30.4-24.6,55-55,55c-30.4,0-55-24.6-55-55V743.8
					c0-8.2-2.3-19,9.9-24c12.1-5,19.9,4.5,29.9,16.3S640.3,751.2,640.3,751.2z"/>
			</g>
		</g>
	</g>
</g>
</svg>
